<svg preserveAspectRatio="none" width="100%" height="100%" overflow="visible" style="display: block;" viewBox="0 0 33 33" fill="none" xmlns="http://www.w3.org/2000/svg">
<g id="search 1" clip-path="url(#clip0_0_81)">
<path id="Vector" d="M7.3135 19.9423L6.16481 24.2305L1.9664 24.3193C0.711692 21.9921 0 19.3295 0 16.5C0 13.7639 0.665414 11.1837 1.84491 8.91181H1.84581L5.58357 9.59707L7.22094 13.3124C6.87824 14.3115 6.69146 15.384 6.69146 16.5C6.69159 17.7112 6.91099 18.8717 7.3135 19.9423Z" fill="var(--fill-0, #FBBB00)"/>
<path id="Vector_2" d="M32.7117 13.4176C32.9012 14.4157 33 15.4465 33 16.5C33 17.6813 32.8758 18.8336 32.6392 19.9451C31.836 23.7274 29.7372 27.0301 26.8298 29.3673L26.8289 29.3664L22.121 29.1262L21.4546 24.9667C23.3839 23.8353 24.8915 22.0647 25.6857 19.9451H16.8627V13.4176H25.8144H32.7117Z" fill="var(--fill-0, #518EF8)"/>
<path id="Vector_3" d="M26.8288 29.3664L26.8297 29.3673C24.0021 31.6401 20.4101 33 16.5 33C10.2164 33 4.75329 29.4879 1.9664 24.3194L7.3135 19.9424C8.70691 23.6612 12.2943 26.3085 16.5 26.3085C18.3077 26.3085 20.0013 25.8198 21.4545 24.9667L26.8288 29.3664Z" fill="var(--fill-0, #28B446)"/>
<path id="Vector_4" d="M27.0319 3.79861L21.6866 8.17472C20.1826 7.23461 18.4047 6.69152 16.5 6.69152C12.1991 6.69152 8.54462 9.46024 7.22101 13.3124L1.84581 8.91181H1.84491C4.591 3.6173 10.123 0 16.5 0C20.5035 0 24.1743 1.42609 27.0319 3.79861Z" fill="var(--fill-0, #F14336)"/>
</g>
<defs>
<clipPath id="clip0_0_81">
<rect width="33" height="33" fill="white"/>
</clipPath>
</defs>
</svg>
