<svg preserveAspectRatio="none" width="100%" height="100%" overflow="visible" style="display: block;" viewBox="0 0 72.458 56.0625" fill="none" xmlns="http://www.w3.org/2000/svg">
<g id="Layer 12">
<path id="Vector" d="M59.6131 26.8238C59.0516 24.629 57.9887 22.5943 56.5078 20.8798C55.027 19.1653 53.1687 17.8176 51.079 16.9427C48.9893 16.0678 46.7251 15.6895 44.4644 15.8376C42.2038 15.9857 40.0083 16.6562 38.0506 17.7962C36.1154 15.6218 33.5657 14.0861 30.7387 13.3923C27.9117 12.6985 24.9407 12.8793 22.2187 13.9108C19.4967 14.9422 17.152 16.7758 15.4947 19.1688C13.8374 21.5618 12.9457 24.4016 12.9375 27.3125C12.9269 30.8623 14.2448 34.2876 16.6319 36.915C15.5905 38.9133 15.0824 41.1466 15.1567 43.3987C15.231 45.6509 15.8852 47.8458 17.056 49.7711C18.2269 51.6965 19.8747 53.2871 21.8402 54.3893C23.8056 55.4914 26.0222 56.0677 28.2756 56.0625H57.8594C61.5862 56.0426 65.1659 54.6057 67.8722 52.0432C70.5784 49.4808 72.2085 45.9848 72.4316 42.2646C72.6548 38.5444 71.4543 34.8786 69.0737 32.011C66.6932 29.1435 63.3109 27.289 59.6131 26.8238ZM15.8125 27.3125C15.8114 25.0017 16.5064 22.7441 17.8071 20.8341C19.1077 18.9241 20.9536 17.4502 23.1042 16.6046C25.2547 15.759 27.6101 15.5808 29.8633 16.0934C32.1166 16.606 34.1631 17.7855 35.7363 19.4781C34.218 20.8014 32.9898 22.4244 32.1289 24.2452C31.2681 26.0659 30.793 28.045 30.7337 30.0581C29.9238 29.9019 29.1005 29.8249 28.2756 29.8281C26.3734 29.8364 24.4957 30.2586 22.773 31.0654C21.0503 31.8721 19.5237 33.0441 18.2994 34.5C16.671 32.4601 15.793 29.9226 15.8125 27.3125ZM57.8594 53.1875H28.2756C26.8983 53.2391 25.5247 53.0124 24.2371 52.5209C22.9494 52.0295 21.7741 51.2833 20.7814 50.3272C19.7888 49.371 18.9991 48.2244 18.4598 46.9561C17.9205 45.6877 17.6425 44.3236 17.6425 42.9453C17.6425 41.567 17.9205 40.2029 18.4598 38.9346C18.9991 37.6662 19.7888 36.5196 20.7814 35.5635C21.7741 34.6073 22.9494 33.8612 24.2371 33.3697C25.5247 32.8782 26.8983 32.6515 28.2756 32.7031C29.4533 32.7012 30.6218 32.9106 31.7256 33.3213C31.9525 33.392 32.1933 33.4054 32.4266 33.3602C32.6599 33.3151 32.8784 33.2128 33.0625 33.0625C33.2544 32.9129 33.4052 32.7171 33.5007 32.4933C33.5962 32.2695 33.6334 32.0252 33.6087 31.7831C33.6087 31.3375 33.6087 30.8775 33.6087 30.4319C33.6142 27.4855 34.7215 24.6477 36.7131 22.4763C38.7047 20.305 41.4364 18.9571 44.3714 18.6976C47.3063 18.4382 50.2322 19.2859 52.5738 21.0743C54.9154 22.8626 56.5034 25.4621 57.0256 28.3619C57.084 28.6824 57.2494 28.9736 57.4949 29.1878C57.7404 29.4019 58.0514 29.5263 58.3769 29.5406C61.5126 29.6092 64.4927 30.9207 66.6615 33.1866C68.8303 35.4524 70.0102 38.487 69.9416 41.6228C69.8729 44.7586 68.5614 47.7387 66.2956 49.9075C64.0297 52.0763 60.9951 53.2561 57.8594 53.1875Z" fill="var(--fill-0, #001C51)"/>
<path id="Vector_2" d="M7.1875 28.75H1.4375C1.05625 28.75 0.690618 28.5986 0.421034 28.329C0.151451 28.0594 0 27.6937 0 27.3125C0 26.9313 0.151451 26.5656 0.421034 26.296C0.690618 26.0264 1.05625 25.875 1.4375 25.875H7.1875C7.56875 25.875 7.93438 26.0264 8.20397 26.296C8.47355 26.5656 8.625 26.9313 8.625 27.3125C8.625 27.6937 8.47355 28.0594 8.20397 28.329C7.93438 28.5986 7.56875 28.75 7.1875 28.75Z" fill="var(--fill-0, #001C51)"/>
<path id="Vector_3" d="M13.0813 14.5188C12.8921 14.5198 12.7045 14.4836 12.5294 14.412C12.3542 14.3405 12.1949 14.2351 12.0606 14.1019L7.9925 10.0625C7.71991 9.788 7.56752 9.41646 7.56887 9.0296C7.57022 8.64275 7.72519 8.27228 7.99969 7.99969C8.27419 7.7271 8.64573 7.57471 9.03258 7.57606C9.41944 7.57741 9.78991 7.73238 10.0625 8.00688L14.1306 12.0606C14.2654 12.1943 14.3723 12.3532 14.4453 12.5284C14.5183 12.7036 14.5558 12.8915 14.5558 13.0813C14.5558 13.271 14.5183 13.4589 14.4453 13.6341C14.3723 13.8093 14.2654 13.9682 14.1306 14.1019C13.9929 14.2386 13.8289 14.346 13.6486 14.4177C13.4682 14.4893 13.2752 14.5237 13.0813 14.5188Z" fill="var(--fill-0, #001C51)"/>
<path id="Vector_4" d="M27.3125 8.625C26.9313 8.625 26.5656 8.47355 26.296 8.20397C26.0264 7.93438 25.875 7.56875 25.875 7.1875V1.4375C25.875 1.05625 26.0264 0.690618 26.296 0.421034C26.5656 0.151451 26.9313 0 27.3125 0C27.6937 0 28.0594 0.151451 28.329 0.421034C28.5986 0.690618 28.75 1.05625 28.75 1.4375V7.1875C28.75 7.56875 28.5986 7.93438 28.329 8.20397C28.0594 8.47355 27.6937 8.625 27.3125 8.625Z" fill="var(--fill-0, #001C51)"/>
<path id="Vector_5" d="M41.5438 14.5188C41.3546 14.5198 41.167 14.4836 40.9919 14.412C40.8167 14.3405 40.6574 14.2351 40.5231 14.1019C40.3884 13.9682 40.2814 13.8093 40.2085 13.6341C40.1355 13.4589 40.0979 13.271 40.0979 13.0813C40.0979 12.8915 40.1355 12.7036 40.2085 12.5284C40.2814 12.3532 40.3884 12.1943 40.5231 12.0606L44.5625 8.00688C44.6975 7.87096 44.8579 7.76296 45.0346 7.68904C45.2113 7.61512 45.4009 7.57673 45.5924 7.57606C45.784 7.57539 45.9738 7.61246 46.151 7.68515C46.3282 7.75783 46.4894 7.86471 46.6253 7.99969C46.7612 8.13466 46.8692 8.29509 46.9431 8.4718C47.0171 8.64851 47.0555 8.83805 47.0561 9.0296C47.0568 9.22115 47.0197 9.41096 46.947 9.58819C46.8744 9.76541 46.7675 9.92658 46.6325 10.0625L42.5644 14.1306C42.2885 14.3892 41.9218 14.5287 41.5438 14.5188Z" fill="var(--fill-0, #001C51)"/>
<path id="Vector_6" d="M9.01313 47.0494C8.82293 47.0486 8.63479 47.0101 8.45959 46.936C8.2844 46.862 8.12563 46.754 7.9925 46.6181C7.72476 46.3488 7.57448 45.9845 7.57448 45.6047C7.57448 45.2249 7.72476 44.8606 7.9925 44.5913L12.0606 40.5231C12.3313 40.2524 12.6984 40.1004 13.0813 40.1004C13.4641 40.1004 13.8312 40.2524 14.1019 40.5231C14.3726 40.7938 14.5246 41.1609 14.5246 41.5438C14.5246 41.9266 14.3726 42.2937 14.1019 42.5644L10.0625 46.6181C9.92599 46.7574 9.76256 46.8675 9.58216 46.9417C9.40175 47.0158 9.20815 47.0524 9.01313 47.0494Z" fill="var(--fill-0, #001C51)"/>
</g>
</svg>
