<svg preserveAspectRatio="none" width="100%" height="100%" overflow="visible" style="display: block;" viewBox="0 0 14.9575 20" fill="none" xmlns="http://www.w3.org/2000/svg">
<g id="Vrstva_x0020_1_15_">
<path id="Vector" fill-rule="evenodd" clip-rule="evenodd" d="M2.60369 0H9.29034L14.9575 5.90705V17.3963C14.9575 18.8356 13.7931 20 12.3588 20H2.60369C1.16441 20 4.11296e-10 18.8356 4.11296e-10 17.3963V2.60369C-2.52695e-05 1.16441 1.16439 0 2.60369 0Z" fill="var(--fill-0, #006EFF)"/>
<g id="Group">
<path id="Vector_2" opacity="0.302" fill-rule="evenodd" clip-rule="evenodd" d="M9.28534 0V5.86207H14.9575L9.28534 0Z" fill="var(--fill-0, white)"/>
<path id="Vector_3" d="M2.89353 14.9225V11.2694H4.44776C4.83257 11.2694 5.13743 11.3743 5.36731 11.5892C5.59719 11.7991 5.71214 12.084 5.71214 12.4388C5.71214 12.7936 5.59719 13.0785 5.36731 13.2884C5.13743 13.5032 4.83257 13.6082 4.44776 13.6082H3.82807V14.9225H2.89353ZM3.82807 12.8136H4.34282C4.48274 12.8136 4.59269 12.7836 4.66766 12.7137C4.74261 12.6487 4.78261 12.5587 4.78261 12.4388C4.78261 12.3189 4.74264 12.2289 4.66766 12.1639C4.59271 12.094 4.48276 12.064 4.34282 12.064H3.82807V12.8136ZM6.09693 14.9225V11.2694H7.39128C7.64615 11.2694 7.88604 11.3043 8.11092 11.3793C8.3358 11.4543 8.54071 11.5592 8.72061 11.7042C8.90053 11.8441 9.04545 12.034 9.1504 12.2739C9.25034 12.5138 9.30533 12.7886 9.30533 13.0984C9.30533 13.4033 9.25037 13.6782 9.1504 13.918C9.04545 14.1579 8.90053 14.3478 8.72061 14.4877C8.54069 14.6327 8.3358 14.7376 8.11092 14.8126C7.88604 14.8875 7.64615 14.9225 7.39128 14.9225H6.09693ZM7.01147 14.1279H7.28133C7.42626 14.1279 7.5612 14.113 7.68613 14.078C7.80606 14.043 7.92102 13.988 8.03097 13.9131C8.13591 13.8381 8.22087 13.7331 8.28083 13.5932C8.3408 13.4533 8.3708 13.2884 8.3708 13.0984C8.3708 12.9035 8.3408 12.7386 8.28083 12.5987C8.22087 12.4588 8.13591 12.3538 8.03097 12.2789C7.92102 12.2039 7.80609 12.1489 7.68613 12.114C7.5612 12.079 7.42626 12.064 7.28133 12.064H7.01147V14.1279ZM9.7751 14.9225V11.2694H12.3738V12.064H10.7096V12.6487H12.039V13.4383H10.7096V14.9225H9.7751Z" fill="var(--fill-0, white)"/>
</g>
</g>
</svg>
