<svg preserveAspectRatio="none" width="100%" height="100%" overflow="visible" style="display: block;" viewBox="0 0 17.6746 14.6161" fill="none" xmlns="http://www.w3.org/2000/svg">
<g id="Group">
<path id="path2" fill-rule="evenodd" clip-rule="evenodd" d="M9.06487 0.0038611C7.64354 -0.0434722 6.20754 0.344305 4.96776 1.17186C3.57532 2.10231 2.6022 3.47631 2.15398 5.01231C2.0302 4.99719 1.88198 5.00386 1.70598 5.05364C1.04887 5.24008 0.554648 5.77853 0.332426 6.25275C0.044204 6.87075 -0.0773516 7.68808 0.0508707 8.53186C0.178204 9.37297 0.533537 10.0663 0.977982 10.4968C1.42376 10.9274 1.92709 11.0674 2.42709 10.9623C3.17154 10.8034 3.54065 10.6845 3.43643 9.99097L2.93176 6.62897C3.03354 4.80942 3.97554 3.09653 5.55109 2.04319C7.65998 0.634528 10.4249 0.72475 12.4364 2.26897C13.8358 3.34186 14.6482 4.94942 14.742 6.63697L14.3891 8.98875C13.602 11.1428 11.6506 12.6348 9.39265 12.8465H7.88909C7.50109 12.8465 7.18865 13.159 7.18865 13.5465V13.9159C7.18865 14.3036 7.50109 14.6161 7.88909 14.6161H9.78487C10.1726 14.6161 10.4838 14.3036 10.4838 13.9159V13.7228C12.1864 13.3072 13.6726 12.2608 14.6404 10.8014L15.2478 10.9625C15.742 11.0908 16.2513 10.9274 16.6969 10.497C17.1413 10.0663 17.4964 9.3732 17.624 8.53208C17.7526 7.68831 17.6275 6.87231 17.3426 6.25297C17.0566 5.63364 16.6306 5.24031 16.1389 5.09919C15.9329 5.03986 15.7093 5.01808 15.5175 5.01231C15.1122 3.62342 14.2778 2.36031 13.0751 1.43808C11.8926 0.53075 10.4862 0.0505278 9.06487 0.0038611Z" fill="var(--fill-0, #006EFF)"/>
<path id="path4" fill-rule="evenodd" clip-rule="evenodd" d="M11.2838 6.05231C11.7849 6.05231 12.1911 6.45853 12.1922 6.96097C12.1911 7.46208 11.7849 7.86942 11.2838 7.86942C10.7813 7.86942 10.374 7.46208 10.374 6.96097C10.374 6.45875 10.7815 6.05231 11.2838 6.05231ZM8.83709 6.05231C9.33931 6.05231 9.74554 6.45853 9.74554 6.96097C9.74554 7.46208 9.33931 7.86942 8.83709 7.86942C8.33443 7.86942 7.9282 7.46208 7.9282 6.96097C7.9282 6.45875 8.33443 6.05231 8.83709 6.05231ZM6.39131 6.05231C6.89243 6.05231 7.29976 6.45853 7.29976 6.96097C7.29976 7.46208 6.89243 7.86942 6.39131 7.86942C5.88909 7.86942 5.48265 7.46208 5.48265 6.96097C5.48265 6.45875 5.88909 6.05231 6.39131 6.05231ZM8.83709 2.14964C6.17265 2.14964 4.02554 4.22608 4.02554 6.96097C4.02554 8.27453 4.5222 9.43542 5.33132 10.2872L5.0442 11.5743C4.94954 11.9979 5.24332 12.2828 5.62398 12.0708L6.88087 11.3696C7.4782 11.629 8.13887 11.7723 8.83709 11.7723C11.5024 11.7723 13.6482 9.69719 13.6482 6.96097C13.6482 4.22608 11.5024 2.14964 8.83709 2.14964Z" fill="var(--fill-0, #006EFF)"/>
</g>
</svg>
