<svg preserveAspectRatio="none" width="100%" height="100%" overflow="visible" style="display: block;" viewBox="0 0 16.1262 16.1037" fill="none" xmlns="http://www.w3.org/2000/svg">
<g id="Layer 2">
<path id="Vector" d="M8.5425 3.12871L0.825002 10.8462C0.540624 11.1311 0.360897 11.5038 0.315002 11.9037L0.00750232 14.6037C-0.0125423 14.7936 0.00768928 14.9855 0.0668759 15.1671C0.126062 15.3486 0.222873 15.5156 0.350985 15.6571C0.479096 15.7987 0.635628 15.9116 0.810357 15.9886C0.985086 16.0655 1.17408 16.1048 1.365 16.1037H1.5225L4.2225 15.7962C4.62083 15.7501 4.99269 15.5734 5.28 15.2937L12.9975 7.56871L8.5425 3.12871Z" fill="var(--fill-0, white)"/>
<path id="Vector_2" d="M15.6075 2.47622L13.65 0.518717C13.4862 0.354311 13.2916 0.223859 13.0773 0.134847C12.8631 0.0458342 12.6333 1.33514e-05 12.4013 1.33514e-05C12.1692 1.33514e-05 11.9394 0.0458342 11.7252 0.134847C11.5109 0.223859 11.3163 0.354311 11.1525 0.518717L9.3375 2.33372L13.7925 6.78872L15.6075 4.97372C15.7719 4.80996 15.9024 4.61536 15.9914 4.40106C16.0804 4.18677 16.1262 3.95701 16.1262 3.72497C16.1262 3.49292 16.0804 3.26316 15.9914 3.04887C15.9024 2.83458 15.7719 2.63997 15.6075 2.47622Z" fill="var(--fill-0, white)"/>
</g>
</svg>
