<svg preserveAspectRatio="none" width="100%" height="100%" overflow="visible" style="display: block;" viewBox="0 0 19.9999 19.9539" fill="none" xmlns="http://www.w3.org/2000/svg">
<g id="Group">
<path id="Vector" d="M7.40748 5.01432C5.05088 7.45255 5.56513 11.4989 8.26458 13.2914C8.35353 13.3505 8.47186 13.3387 8.54826 13.2641C9.11656 12.7088 9.59732 12.171 10.0183 11.4869C10.0827 11.3822 10.0426 11.2464 9.93458 11.1879C9.52284 10.9648 9.11312 10.5466 8.88247 10.1047L8.8822 10.1049C8.6059 9.55471 8.51184 8.93798 8.65811 8.30106C8.65827 8.3011 8.65843 8.30114 8.65858 8.30114C8.8269 7.48569 9.70233 6.72715 10.371 6.02563C10.3695 6.02516 10.3682 6.02465 10.3668 6.02418L12.8719 3.46733C13.8703 2.4484 15.5124 2.44 16.5211 3.44869C17.54 4.44699 17.5568 6.09742 16.5585 7.11631L15.0411 8.6767C14.9709 8.74892 14.9481 8.85428 14.981 8.94951C15.3304 9.96266 15.4163 11.3912 15.1822 12.4705C15.1756 12.5008 15.2129 12.5205 15.2345 12.4984L18.464 9.20228C20.5271 7.09665 20.5095 3.6684 18.4251 1.58395C16.2979 -0.543287 12.8348 -0.525584 10.7294 1.62323L7.42041 5.00048C7.41604 5.00509 7.41189 5.00978 7.40748 5.01432Z" fill="var(--fill-0, #006EFF)"/>
<path id="Vector_2" d="M13.445 13.7557C13.4449 13.7558 13.4449 13.7559 13.4448 13.756C13.4469 13.7552 13.4488 13.7544 13.4509 13.7535C14.11 12.5483 14.2397 11.1661 13.9308 9.81861L13.9294 9.82006L13.9279 9.8194C13.6346 8.61929 12.8298 7.42758 11.7368 6.69386C11.6428 6.63074 11.4926 6.63805 11.4046 6.70925C10.8509 7.15692 10.309 7.73096 9.95143 8.46352C9.89527 8.57853 9.93732 8.71668 10.048 8.78092C10.463 9.02185 10.8378 9.37459 11.0887 9.84288L11.0891 9.84261C11.2846 10.1734 11.4773 10.8011 11.3525 11.4756C11.3524 11.4756 11.3523 11.4756 11.3523 11.4756C11.2358 12.3698 10.3328 13.19 9.61499 13.929L9.61534 13.9294C9.06892 14.4882 7.6799 15.9042 7.12372 16.4724C6.12542 17.4913 4.47499 17.5081 3.4561 16.5098C2.43721 15.5116 2.42036 13.8611 3.41866 12.8422L4.94055 11.2772C5.00953 11.2062 5.03298 11.1031 5.0023 11.0091C4.66438 9.97224 4.5718 8.57587 4.78509 7.49777C4.79103 7.46772 4.75406 7.44853 4.73261 7.47041L1.55169 10.717C-0.532519 12.8442 -0.514855 16.3076 1.59101 18.4135C3.71813 20.4976 7.1637 20.4624 9.24783 18.3353C9.97187 17.5254 13.0712 14.6558 13.445 13.7557Z" fill="var(--fill-0, #006EFF)"/>
</g>
</svg>
