<svg preserveAspectRatio="none" width="100%" height="100%" overflow="visible" style="display: block;" viewBox="0 0 8.7174 19.2466" fill="none" xmlns="http://www.w3.org/2000/svg">
<g id="Group">
<path id="Vector" d="M8.21551 16.5963C7.84426 16.7406 6.66864 17.0844 6.13239 16.7784C6.05839 16.7355 5.99595 16.6752 5.95043 16.6027C5.90492 16.5302 5.87771 16.4478 5.87114 16.3625C5.7027 15.29 6.50364 12.8116 6.93676 11.4813C7.08114 11.0378 7.18426 10.7147 7.22551 10.5188C7.53832 9.07156 7.38364 7.96469 6.76489 7.22906C6.02046 6.34401 4.69957 6.17182 3.61614 6.33188C2.51439 6.47872 1.43775 6.77477 0.415824 7.21188C0.36834 7.23484 0.32685 7.26853 0.294634 7.3103C0.262417 7.35206 0.240357 7.40074 0.230199 7.4525L0.00676084 8.52156C-0.00530917 8.58169 -0.00116387 8.64394 0.0187711 8.70193C0.038706 8.75992 0.0737125 8.81157 0.120198 8.85156C0.16728 8.89067 0.223686 8.91693 0.283925 8.92777C0.344164 8.93862 0.406184 8.93368 0.463948 8.91344C0.873011 8.76219 2.15176 8.42188 2.60895 8.84125C2.86676 9.07844 2.79457 9.58031 2.69147 9.955C2.5849 10.3469 2.4577 10.7697 2.32709 11.2131C1.48147 14.0903 0.518965 17.3525 2.04522 18.37C2.76733 18.9213 3.64626 19.2283 4.55459 19.2466C5.44834 19.2466 6.55178 18.9647 8.1399 18.3219C8.18776 18.3033 8.23083 18.2741 8.26593 18.2367C8.30104 18.1992 8.32728 18.1543 8.34272 18.1053L8.66928 17.0156C8.68777 16.9535 8.68856 16.8874 8.67156 16.8249C8.65455 16.7623 8.62043 16.7058 8.57303 16.6616C8.52562 16.6181 8.46692 16.589 8.40368 16.5774C8.34043 16.5659 8.27521 16.5724 8.21551 16.5963Z" fill="var(--fill-0, #006EFF)"/>
<path id="Vector_2" d="M6.22865 2.98023e-08C5.7369 0.000339983 5.2563 0.146447 4.84757 0.419856C4.43885 0.693265 4.12034 1.0817 3.93232 1.53608C3.7443 1.99045 3.69519 2.49037 3.79121 2.97265C3.88722 3.45492 4.12406 3.89791 4.47177 4.24563C4.81948 4.59334 5.26247 4.83017 5.74475 4.92619C6.22703 5.02221 6.72694 4.9731 7.18132 4.78508C7.63569 4.59705 8.02413 4.27855 8.29754 3.86982C8.57095 3.4611 8.71706 2.98049 8.7174 2.48875C8.71718 1.82876 8.4549 1.19586 7.98822 0.72918C7.52153 0.262497 6.88864 0.000219613 6.22865 2.98023e-08Z" fill="var(--fill-0, #006EFF)"/>
</g>
</svg>
