<svg preserveAspectRatio="none" width="100%" height="100%" overflow="visible" style="display: block;" viewBox="0 0 25 25" fill="none" xmlns="http://www.w3.org/2000/svg">
<g id="referral 1">
<path id="Vector" d="M18.75 14.5833C18.6948 14.5833 18.6458 14.5979 18.5885 14.6L15.4344 9.20625C16.0207 8.625 16.4212 7.88264 16.585 7.07339C16.7487 6.26415 16.6683 5.4245 16.354 4.66101C16.0397 3.89752 15.5057 3.24462 14.8197 2.78517C14.1337 2.32571 13.3267 2.08042 12.501 2.08042C11.6754 2.08042 10.8684 2.32571 10.1824 2.78517C9.49637 3.24462 8.96235 3.89752 8.64806 4.66101C8.33377 5.4245 8.25339 6.26415 8.41713 7.07339C8.58087 7.88264 8.98134 8.625 9.56771 9.20625L6.42292 14.601C6.36354 14.5979 6.30938 14.5833 6.25 14.5833C5.47008 14.5806 4.70505 14.7968 4.04195 15.2074C3.37885 15.618 2.84429 16.2064 2.4991 16.9058C2.15391 17.6052 2.01194 18.3874 2.08934 19.1635C2.16675 19.9396 2.46042 20.6783 2.93694 21.2958C3.41346 21.9132 4.05371 22.3845 4.78485 22.656C5.51598 22.9275 6.30864 22.9884 7.07266 22.8317C7.83668 22.6749 8.54138 22.3069 9.10658 21.7695C9.67179 21.2321 10.0748 20.5468 10.2698 19.7917H14.7302C14.9262 20.5447 15.3294 21.2276 15.894 21.7629C16.4587 22.2982 17.1621 22.6645 17.9245 22.8201C18.6868 22.9757 19.4775 22.9144 20.2068 22.6432C20.9361 22.372 21.5747 21.9017 22.05 21.2857C22.5254 20.6698 22.8186 19.9328 22.8962 19.1586C22.9738 18.3845 22.8327 17.604 22.489 16.906C22.1453 16.2079 21.6128 15.6202 20.9518 15.2097C20.2909 14.7991 19.5281 14.5821 18.75 14.5833ZM14.7302 17.7083H10.2698C10.0053 16.6841 9.3605 15.7991 8.46667 15.2333L11.376 10.2437C12.1086 10.475 12.8946 10.475 13.6271 10.2437L16.5438 15.2292C15.6448 15.7936 14.9959 16.6806 14.7302 17.7083Z" fill="var(--fill-0, #E1F0FF)"/>
</g>
</svg>
