<svg preserveAspectRatio="none" width="100%" height="100%" overflow="visible" style="display: block;" viewBox="0 0 25 25" fill="none" xmlns="http://www.w3.org/2000/svg">
<g id="group 1">
<path id="Vector" d="M8.92891 12.5C9.812 12.5 10.6753 12.2381 11.4095 11.7475C12.1438 11.2568 12.716 10.5595 13.054 9.7436C13.3919 8.92771 13.4802 8.02994 13.3079 7.16382C13.1356 6.2977 12.7102 5.50215 12.0858 4.87776C11.4613 4.25337 10.6656 3.8282 9.79948 3.65601C8.93333 3.48382 8.03557 3.57235 7.21974 3.9104C6.40391 4.24846 5.70665 4.82085 5.21614 5.55519C4.72564 6.28953 4.46391 7.15284 4.46406 8.03594C4.4653 9.21964 4.93613 10.3545 5.7732 11.1914C6.61028 12.0283 7.74521 12.499 8.92891 12.5Z" fill="var(--fill-0, #E1F0FF)"/>
<path id="Vector_2" d="M14.7695 16.1883C13.6381 15.0278 12.1865 14.2309 10.6 13.8994C9.01357 13.568 7.36431 13.7169 5.86291 14.3273C4.36151 14.9377 3.07614 15.9817 2.17098 17.3261C1.26583 18.6706 0.781982 20.2543 0.78125 21.875C0.78125 22.0822 0.86356 22.2809 1.01007 22.4274C1.15659 22.5739 1.3553 22.6562 1.5625 22.6562H16.2969C16.5041 22.6562 16.7028 22.5739 16.8493 22.4274C16.9958 22.2809 17.0781 22.0822 17.0781 21.875C17.0811 21.0466 16.9533 20.2229 16.6992 19.4344C16.3209 18.2153 15.6597 17.103 14.7695 16.1883Z" fill="var(--fill-0, #E1F0FF)"/>
<path id="Vector_3" d="M18.3594 12.8906C20.1931 12.8906 21.6797 11.4041 21.6797 9.57031C21.6797 7.73655 20.1931 6.25 18.3594 6.25C16.5256 6.25 15.0391 7.73655 15.0391 9.57031C15.0391 11.4041 16.5256 12.8906 18.3594 12.8906Z" fill="var(--fill-0, #E1F0FF)"/>
<path id="Vector_4" d="M18.3594 13.8047C17.3122 13.8086 16.2852 14.0938 15.3859 14.6305C15.5555 14.782 15.7266 14.9312 15.8867 15.0953C16.9505 16.1887 17.7407 17.5181 18.193 18.975C18.3479 19.4546 18.4621 19.9465 18.5344 20.4453H23.4375C23.6447 20.4453 23.8434 20.363 23.9899 20.2165C24.1364 20.07 24.2188 19.8713 24.2188 19.6641C24.2171 18.1106 23.5992 16.6212 22.5008 15.5227C21.4023 14.4242 19.9129 13.8063 18.3594 13.8047Z" fill="var(--fill-0, #E1F0FF)"/>
</g>
</svg>
