<svg preserveAspectRatio="none" width="100%" height="100%" overflow="visible" style="display: block;" viewBox="0 0 20 20" fill="none" xmlns="http://www.w3.org/2000/svg">
<g id="login 1">
<path id="Login" d="M14.8 18.4H10C9.6684 18.4 9.4 18.1316 9.4 17.8C9.4 17.4684 9.6684 17.2 10 17.2H14.8C15.7926 17.2 16.6 16.3926 16.6 15.4V4.6C16.6 3.6074 15.7926 2.8 14.8 2.8H10C9.6684 2.8 9.4 2.5316 9.4 2.2C9.4 1.8684 9.6684 1.6 10 1.6H14.8C16.4542 1.6 17.8 2.9458 17.8 4.6V15.4C17.8 17.0542 16.4542 18.4 14.8 18.4ZM12.8242 9.5758L9.8242 6.5758C9.5898 6.3414 9.2102 6.3414 8.9758 6.5758C8.7414 6.8102 8.7414 7.1898 8.9758 7.4242L10.9516 9.4H2.8C2.4684 9.4 2.2 9.6684 2.2 10C2.2 10.3316 2.4684 10.6 2.8 10.6H10.9516L8.9758 12.5758C8.7414 12.8102 8.7414 13.1898 8.9758 13.4242C9.093 13.5414 9.2464 13.6 9.4 13.6C9.5536 13.6 9.707 13.5414 9.8242 13.4242L12.8242 10.4242C13.0586 10.1898 13.0586 9.8102 12.8242 9.5758Z" fill="var(--fill-0, #006EFF)"/>
</g>
</svg>
