<svg preserveAspectRatio="none" width="100%" height="100%" overflow="visible" style="display: block;" viewBox="0 0 20.3125 20.3132" fill="none" xmlns="http://www.w3.org/2000/svg">
<g id="Group">
<path id="Vector" d="M15.1281 2.975C14.8352 3.26801 14.6706 3.66537 14.6706 4.07969C14.6706 4.49401 14.8352 4.89136 15.1281 5.18437C16.1115 6.16772 16.7811 7.42057 17.0524 8.78449C17.3237 10.1484 17.1845 11.5622 16.6523 12.847C16.1201 14.1317 15.2189 15.2299 14.0626 16.0025C12.9063 16.7751 11.5469 17.1874 10.1563 17.1874C8.76561 17.1874 7.40619 16.7751 6.24991 16.0025C5.09363 15.2299 4.19242 14.1317 3.66023 12.847C3.12805 11.5622 2.98881 10.1484 3.2601 8.78449C3.5314 7.42057 4.20105 6.16772 5.18438 5.18437C5.469 4.88968 5.62649 4.49499 5.62293 4.08531C5.61937 3.67563 5.45505 3.28373 5.16535 2.99403C4.87565 2.70433 4.48375 2.54001 4.07407 2.53645C3.66439 2.53289 3.2697 2.69038 2.975 2.975C1.55454 4.39534 0.587168 6.20501 0.195217 8.17515C-0.196734 10.1453 0.00434365 12.1874 0.773021 14.0433C1.5417 15.8991 2.84345 17.4854 4.51365 18.6014C6.18386 19.7174 8.1475 20.3131 10.1563 20.3131C12.165 20.3131 14.1286 19.7174 15.7989 18.6014C17.4691 17.4854 18.7708 15.8991 19.5395 14.0433C20.3082 12.1874 20.5092 10.1453 20.1173 8.17515C19.7253 6.20501 18.758 4.39534 17.3375 2.975C17.0445 2.68208 16.6471 2.51752 16.2328 2.51752C15.8185 2.51752 15.4211 2.68208 15.1281 2.975Z" fill="var(--fill-0, #E1F0FF)"/>
<path id="Vector_2" d="M10.1563 10C10.57 9.99795 10.9663 9.83267 11.2588 9.54009C11.5514 9.2475 11.7167 8.85127 11.7188 8.4375V1.5625C11.7188 1.1481 11.5541 0.750671 11.2611 0.457646C10.9681 0.16462 10.5707 0 10.1563 0C9.74185 0 9.34443 0.16462 9.0514 0.457646C8.75838 0.750671 8.59375 1.1481 8.59375 1.5625V8.4375C8.59581 8.85127 8.76109 9.2475 9.05367 9.54009C9.34625 9.83267 9.74249 9.99795 10.1563 10Z" fill="var(--fill-0, #E1F0FF)"/>
</g>
</svg>
