<svg preserveAspectRatio="none" width="100%" height="100%" overflow="visible" style="display: block;" viewBox="0 0 25 19.8953" fill="none" xmlns="http://www.w3.org/2000/svg">
<g id="Group">
<path id="Vector" d="M12.5 4.01616L3.5839 11.3666C3.5839 11.3769 3.5813 11.3922 3.57608 11.413C3.57098 11.4337 3.56826 11.4486 3.56826 11.4593V18.9024C3.56826 19.1711 3.66651 19.404 3.86296 19.6001C4.05936 19.7963 4.29192 19.8951 4.56072 19.8951H10.515V13.9405H14.4851V19.8953H20.4393C20.7081 19.8953 20.941 19.7968 21.1371 19.6001C21.3335 19.4042 21.4321 19.1712 21.4321 18.9024V11.4593C21.4321 11.418 21.4265 11.3868 21.4165 11.3666L12.5 4.01616Z" fill="var(--fill-0, #E1F0FF)"/>
<path id="Vector_2" d="M24.8275 9.69179L21.4318 6.86959V0.542856C21.4318 0.398221 21.3853 0.279276 21.292 0.186184C21.1994 0.0932008 21.0805 0.046709 20.9355 0.046709H17.9583C17.8135 0.046709 17.6947 0.0932008 17.6015 0.186184C17.5086 0.279276 17.4621 0.398275 17.4621 0.542856V3.56661L13.6786 0.403164C13.3482 0.13437 12.9553 0 12.5004 0C12.0455 0 11.6526 0.13437 11.3219 0.403164L0.17231 9.69179C0.068953 9.77434 0.0123049 9.88547 0.00176828 10.025C-0.00871406 10.1645 0.0274039 10.2863 0.110231 10.3897L1.07162 11.5372C1.15445 11.6302 1.26285 11.687 1.39728 11.7078C1.52138 11.7182 1.64549 11.682 1.76959 11.5993L12.5 2.65171L23.2306 11.5993C23.3135 11.6714 23.4218 11.7074 23.5562 11.7074H23.6028C23.737 11.687 23.8452 11.6297 23.9285 11.537L24.89 10.3896C24.9727 10.2861 25.0089 10.1645 24.9981 10.0248C24.9875 9.88563 24.9307 9.7745 24.8275 9.69179Z" fill="var(--fill-0, #E1F0FF)"/>
</g>
</svg>
