<svg preserveAspectRatio="none" width="100%" height="100%" overflow="visible" style="display: block;" viewBox="0 0 18 18" fill="none" xmlns="http://www.w3.org/2000/svg">
<g id="Group">
<path id="Vector" d="M1.27961 8.99965C1.27961 12.0553 3.05497 14.6965 5.63086 15.9483L1.94754 5.8579C1.51985 6.81744 1.27961 7.88042 1.27961 8.99965ZM14.2118 8.60945C14.2118 7.65547 13.8695 6.99448 13.5752 6.48069C13.1843 5.84401 12.817 5.30662 12.817 4.66993C12.817 3.96104 13.3551 3.30006 14.1132 3.30006C14.1473 3.30006 14.1799 3.30422 14.2139 3.30561C12.8399 2.04683 11.0097 1.27892 9.00035 1.27892C6.30295 1.27892 3.9298 2.66268 2.54951 4.7595C2.73072 4.76505 2.90152 4.76852 3.04663 4.76852C3.85412 4.76852 5.10388 4.66993 5.10388 4.66993C5.51977 4.64563 5.56906 5.25732 5.15317 5.30662C5.15317 5.30662 4.7345 5.35522 4.27001 5.37952L7.08127 13.7425L8.77123 8.67541L7.56868 5.37952C7.15279 5.35522 6.75842 5.30662 6.75842 5.30662C6.34183 5.28162 6.39113 4.64494 6.80702 4.66993C6.80702 4.66993 8.08177 4.76852 8.83996 4.76852C9.64744 4.76852 10.8979 4.66993 10.8979 4.66993C11.3145 4.64563 11.3631 5.25732 10.9472 5.30662C10.9472 5.30662 10.5278 5.35522 10.064 5.37952L12.8538 13.6786L13.6245 11.1055C14.016 10.1022 14.2118 9.27113 14.2118 8.60945ZM9.13574 9.67522L6.81882 16.4059C7.51105 16.6093 8.24216 16.7204 9.00035 16.7204C9.89879 16.7204 10.7618 16.5649 11.5644 16.283C11.5443 16.2496 11.5249 16.2142 11.5089 16.1767L9.13574 9.67522ZM15.7747 5.29551C15.8088 5.54129 15.8268 5.80513 15.8268 6.0898C15.8268 6.87298 15.6796 7.75337 15.2394 8.85454L12.8815 15.6727C15.1769 14.334 16.7204 11.8477 16.7204 8.99965C16.7204 7.65686 16.3774 6.3946 15.7747 5.29551Z" fill="var(--fill-0, #006EFF)"/>
<g id="Group_2">
<path id="Vector_2" d="M0 8.99965C0 13.9619 4.03742 18 8.99965 18C13.9633 18 18 13.9619 18 8.99965C18 4.03742 13.9633 0 9.00035 0C4.03742 0 0 4.03672 0 8.99965ZM0.41242 8.99965C0.41242 4.26515 4.26446 0.41242 8.99965 0.41242C13.7349 0.41242 17.5876 4.26515 17.5876 8.99965C17.5876 13.7342 13.7349 17.5869 9.00035 17.5869C4.26584 17.5869 0.41242 13.7342 0.41242 8.99965Z" fill="var(--fill-0, #006EFF)"/>
</g>
</g>
</svg>
