<svg preserveAspectRatio="none" width="100%" height="100%" overflow="visible" style="display: block;" viewBox="0 0 22 17.705" fill="none" xmlns="http://www.w3.org/2000/svg">
<g id="Group 3">
<path id="Vector" d="M13.9601 4.8754H14.6311L16.5435 2.96307L16.6374 2.15116C15.5419 1.18423 14.218 0.51253 12.7907 0.199524C11.3634 -0.113482 9.87988 -0.0574641 8.48027 0.362285C7.08066 0.782035 5.81115 1.55166 4.79168 2.59845C3.77221 3.64525 3.03643 4.93466 2.65384 6.34488C2.86688 6.25756 3.10288 6.2434 3.32484 6.30462L7.14951 5.67389C7.14951 5.67389 7.3441 5.35181 7.44475 5.37194C8.26426 4.47191 9.39679 3.91917 10.6105 3.82686C11.8242 3.73455 13.0273 4.10966 13.9735 4.8754H13.9601Z" fill="var(--fill-0, #EA4335)"/>
<path id="Vector_2" d="M19.2676 6.34482C18.8281 4.72613 17.9256 3.27095 16.6709 2.1578L13.9869 4.84178C14.5463 5.29884 14.9946 5.87696 15.2979 6.53252C15.6013 7.18808 15.7518 7.90397 15.7382 8.6262V9.10261C16.0519 9.10261 16.3625 9.16439 16.6523 9.28444C16.9422 9.40449 17.2055 9.58044 17.4273 9.80225C17.6491 10.0241 17.8251 10.2874 17.9451 10.5772C18.0652 10.867 18.1269 11.1777 18.1269 11.4914C18.1269 11.805 18.0652 12.1157 17.9451 12.4055C17.8251 12.6953 17.6491 12.9586 17.4273 13.1804C17.2055 13.4023 16.9422 13.5782 16.6523 13.6983C16.3625 13.8183 16.0519 13.8801 15.7382 13.8801H10.9607L10.4843 14.3632V17.2284L10.9607 17.7048H15.7382C17.0723 17.7152 18.3743 17.2959 19.4516 16.5089C20.529 15.7219 21.3244 14.6091 21.7202 13.3351C22.1161 12.061 22.0913 10.6934 21.6496 9.43447C21.2079 8.17557 20.3727 7.09227 19.2676 6.34482Z" fill="var(--fill-0, #4285F4)"/>
<path id="Vector_3" d="M6.17667 17.6782H10.9542V13.8535H6.17667C5.8363 13.8534 5.49992 13.7802 5.19031 13.6388L4.51931 13.8468L2.59356 15.7591L2.42581 16.4301C3.50573 17.2456 4.82346 17.684 6.17667 17.6782Z" fill="var(--fill-0, #34A853)"/>
<path id="Vector_4" d="M6.1763 5.27135C4.88183 5.27909 3.6221 5.69093 2.57305 6.44935C1.52401 7.20778 0.738032 8.27492 0.32491 9.50172C-0.0882115 10.7285 -0.107851 12.0537 0.268735 13.2922C0.645321 14.5307 1.39933 15.6207 2.42544 16.4099L5.19665 13.6387C4.84449 13.4796 4.53618 13.2374 4.29819 12.9329C4.06019 12.6285 3.89962 12.2708 3.83023 11.8907C3.76085 11.5105 3.78473 11.1192 3.89983 10.7503C4.01493 10.3814 4.21781 10.0459 4.49106 9.77269C4.76431 9.49944 5.09978 9.29656 5.46868 9.18146C5.83758 9.06636 6.22889 9.04248 6.60905 9.11186C6.98921 9.18124 7.34686 9.34182 7.65131 9.57982C7.95577 9.81781 8.19793 10.1261 8.35704 10.4783L11.1283 7.70707C10.5466 6.94667 9.79693 6.33112 8.93787 5.90858C8.07881 5.48603 7.13365 5.26794 6.1763 5.27135Z" fill="var(--fill-0, #FBBC05)"/>
</g>
</svg>
