<svg preserveAspectRatio="none" width="100%" height="100%" overflow="visible" style="display: block;" viewBox="0 0 41.9999 41.9032" fill="none" xmlns="http://www.w3.org/2000/svg">
<g id="Group">
<path id="Vector" d="M15.5557 10.5301C10.6068 15.6504 11.6868 24.1477 17.3556 27.9119C17.5424 28.036 17.7909 28.0114 17.9513 27.8546C19.1448 26.6885 20.1544 25.559 21.0384 24.1225C21.1737 23.9027 21.0895 23.6175 20.8626 23.4946C19.998 23.0261 19.1376 22.1478 18.6532 21.2199L18.6526 21.2202C18.0724 20.0649 17.8749 18.7698 18.182 17.4322C18.1824 17.4323 18.1827 17.4324 18.183 17.4324C18.5365 15.72 20.3749 14.127 21.779 12.6538C21.776 12.6528 21.7732 12.6518 21.7702 12.6508L27.031 7.2814C29.1275 5.14165 32.576 5.124 34.6943 7.24226C36.834 9.33868 36.8693 12.8046 34.7729 14.9443L31.5864 18.2211C31.4389 18.3727 31.391 18.594 31.4601 18.794C32.1938 20.9216 32.3742 23.9216 31.8825 26.1881C31.8688 26.2516 31.9471 26.2931 31.9924 26.2467L38.7744 19.3248C43.1068 14.903 43.0701 7.70364 38.6927 3.3263C34.2255 -1.1409 26.9531 -1.10373 22.5317 3.40878L15.5829 10.501C15.5737 10.5107 15.565 10.5205 15.5557 10.5301Z" fill="var(--fill-0, white)"/>
<path id="Vector_2" d="M28.2345 28.8869C28.2344 28.8872 28.2342 28.8874 28.2341 28.8877C28.2385 28.8859 28.2425 28.8842 28.2469 28.8823C29.6309 26.3514 29.9034 23.4487 29.2547 20.6191L29.2518 20.6221L29.2486 20.6207C28.6327 18.1005 26.9426 15.5979 24.6474 14.0571C24.4499 13.9246 24.1345 13.9399 23.9496 14.0894C22.787 15.0295 21.6489 16.235 20.898 17.7734C20.7801 18.0149 20.8684 18.305 21.1008 18.4399C21.9723 18.9459 22.7593 19.6866 23.2863 20.6701L23.2871 20.6695C23.6977 21.3642 24.1024 22.6824 23.8403 24.0987C23.8401 24.0987 23.8399 24.0987 23.8397 24.0987C23.5952 25.9765 21.6989 27.6989 20.1915 29.251L20.1922 29.2517C19.0447 30.4251 16.1278 33.3988 14.9598 34.5921C12.8634 36.7317 9.39749 36.7671 7.25781 34.6707C5.11814 32.5743 5.08276 29.1084 7.17919 26.9687L10.3752 23.682C10.52 23.5331 10.5693 23.3166 10.5048 23.119C9.79519 20.9417 9.60077 18.0093 10.0487 15.7453C10.0612 15.6822 9.98354 15.6419 9.93848 15.6879L3.25856 22.5057C-1.11829 26.9729 -1.0812 34.2461 3.34112 38.6683C7.80808 43.045 15.0438 42.971 19.4204 38.5041C20.9409 36.8033 27.4496 30.7771 28.2345 28.8869Z" fill="var(--fill-0, white)"/>
</g>
</svg>
