<svg preserveAspectRatio="none" width="100%" height="100%" overflow="visible" style="display: block;" viewBox="0 0 246.886 246.886" fill="none" xmlns="http://www.w3.org/2000/svg">
<g id="Circle">
<path id="Filled Section" d="M225.285 68.8362C229.123 66.7785 230.587 61.9836 228.289 58.2851C219.435 44.0388 207.755 31.7216 193.941 22.1109C177.966 10.9966 159.589 3.81699 140.31 1.15782C121.031 -1.50136 101.397 0.435299 83.0096 6.80975C64.6219 13.1842 48.002 23.8158 34.5059 37.8371C21.0099 51.8583 11.0201 68.8718 5.3519 87.4893C-0.316312 106.107 -1.5024 125.801 1.89044 144.964C5.28327 164.127 13.1589 182.216 24.8746 197.756C35.0054 211.193 47.7593 222.395 62.3331 230.698C66.1166 232.854 70.8521 231.208 72.7618 227.294V227.294C74.6716 223.381 73.03 218.685 69.2668 216.494C56.918 209.305 46.1 199.715 37.4662 188.263C27.2471 174.708 20.3775 158.93 17.4181 142.215C14.4587 125.499 15.4933 108.321 20.4374 92.0821C25.3815 75.843 34.0951 61.0028 45.8671 48.7728C57.6392 36.5427 72.136 27.2692 88.1747 21.709C104.213 16.1489 121.339 14.4596 138.155 16.7791C154.971 19.0986 171.001 25.3611 184.935 35.0555C196.708 43.2461 206.704 53.6903 214.359 65.7558C216.692 69.4326 221.447 70.8939 225.285 68.8362V68.8362Z" fill="var(--fill-0, #006EFF)"/>
<path id="Empty Section" d="M173.192 227.744C175.067 231.674 179.787 233.363 183.59 231.241C195.417 224.642 206.093 216.133 215.179 206.042C226.026 193.995 234.394 179.93 239.805 164.649C245.217 149.368 247.565 133.171 246.717 116.982C246.006 103.422 243.064 90.0901 238.025 77.5192C236.405 73.4772 231.674 71.8188 227.744 73.6935V73.6935C223.814 75.5682 222.176 80.2654 223.758 84.3223C227.927 95.012 230.367 106.316 230.969 117.807C231.709 131.928 229.661 146.056 224.941 159.385C220.221 172.714 212.922 184.982 203.46 195.49C195.76 204.042 186.751 211.292 176.784 216.976C173.001 219.133 171.318 223.814 173.192 227.744V227.744Z" fill="var(--fill-0, #E1F0FF)"/>
</g>
</svg>
