<svg preserveAspectRatio="none" width="100%" height="100%" overflow="visible" style="display: block;" viewBox="0 0 42 42" fill="none" xmlns="http://www.w3.org/2000/svg">
<g id="group 1">
<path id="Vector" d="M15.0006 21C16.4842 21 17.9344 20.56 19.168 19.7358C20.4015 18.9115 21.363 17.7399 21.9307 16.3692C22.4983 14.9986 22.6468 13.4903 22.3573 12.0352C22.0677 10.5801 21.3532 9.24361 20.3041 8.19464C19.2549 7.14566 17.9182 6.43137 16.4631 6.14209C15.008 5.85282 13.4998 6.00155 12.1292 6.56948C10.7586 7.13741 9.58718 8.09902 8.76312 9.33272C7.93907 10.5664 7.49937 12.0168 7.49963 13.5004C7.50171 15.489 8.2927 17.3955 9.69898 18.8016C11.1053 20.2076 13.012 20.9983 15.0006 21Z" fill="var(--fill-0, #E1F0FF)"/>
<path id="Vector_2" d="M24.8128 27.1963C22.9121 25.2467 20.4733 23.908 17.8081 23.3511C15.1428 22.7942 12.372 23.0444 9.84968 24.0698C7.32733 25.0953 5.16791 26.8493 3.64725 29.1079C2.12659 31.3665 1.31373 34.0272 1.3125 36.75C1.3125 37.0981 1.45078 37.4319 1.69692 37.6781C1.94306 37.9242 2.2769 38.0625 2.625 38.0625H27.3788C27.7268 38.0625 28.0607 37.9242 28.3068 37.6781C28.553 37.4319 28.6913 37.0981 28.6913 36.75C28.6963 35.3583 28.4815 33.9744 28.0547 32.6497C27.4192 30.6017 26.3083 28.7331 24.8128 27.1963Z" fill="var(--fill-0, #E1F0FF)"/>
<path id="Vector_3" d="M30.8438 21.6562C33.9245 21.6562 36.4219 19.1588 36.4219 16.0781C36.4219 12.9974 33.9245 10.5 30.8438 10.5C27.763 10.5 25.2656 12.9974 25.2656 16.0781C25.2656 19.1588 27.763 21.6562 30.8438 21.6562Z" fill="var(--fill-0, #E1F0FF)"/>
<path id="Vector_4" d="M30.8438 23.1919C29.0844 23.1985 27.3592 23.6776 25.8484 24.5792C26.1332 24.8338 26.4206 25.0845 26.6897 25.3601C28.4768 27.197 29.8044 29.4304 30.5642 31.878C30.8244 32.6838 31.0163 33.5101 31.1378 34.3481H39.375C39.7231 34.3481 40.0569 34.2098 40.3031 33.9637C40.5492 33.7176 40.6875 33.3837 40.6875 33.0356C40.6847 30.4258 39.6467 27.9236 37.8013 26.0781C35.9558 24.2327 33.4536 23.1947 30.8438 23.1919Z" fill="var(--fill-0, #E1F0FF)"/>
</g>
</svg>
